<svg width="15" height="15" viewBox="0 0 15 15" fill="none" xmlns="http://www.w3.org/2000/svg">
<path d="M7.06104 0.804893C7.25054 0.457423 7.74946 0.457422 7.93896 0.804893L9.72281 4.07579C9.79472 4.20765 9.9221 4.3002 10.0697 4.32785L13.7318 5.01362C14.1208 5.08647 14.275 5.56098 14.0031 5.84858L11.4435 8.55587C11.3403 8.66502 11.2917 8.81476 11.311 8.96371L11.7904 12.6584C11.8413 13.0509 11.4377 13.3442 11.0802 13.1745L7.71441 11.5768C7.57873 11.5124 7.42127 11.5124 7.28559 11.5768L3.91984 13.1745C3.5623 13.3442 3.15866 13.0509 3.20959 12.6584L3.68901 8.96372C3.70834 8.81476 3.65968 8.66502 3.55649 8.55587L0.996928 5.84858C0.725022 5.56098 0.879199 5.08647 1.26822 5.01362L4.93026 4.32785C5.0779 4.3002 5.20528 4.20765 5.27719 4.07579L7.06104 0.804893Z" fill="#D9D9D9"/>
<path d="M7.06104 0.804893C7.25054 0.457423 7.74946 0.457422 7.93896 0.804893L9.72281 4.07579C9.79472 4.20765 9.9221 4.3002 10.0697 4.32785L13.7318 5.01362C14.1208 5.08647 14.275 5.56098 14.0031 5.84858L11.4435 8.55587C11.3403 8.66502 11.2917 8.81476 11.311 8.96371L11.7904 12.6584C11.8413 13.0509 11.4377 13.3442 11.0802 13.1745L7.71441 11.5768C7.57873 11.5124 7.42127 11.5124 7.28559 11.5768L3.91984 13.1745C3.5623 13.3442 3.15866 13.0509 3.20959 12.6584L3.68901 8.96372C3.70834 8.81476 3.65968 8.66502 3.55649 8.55587L0.996928 5.84858C0.725022 5.56098 0.879199 5.08647 1.26822 5.01362L4.93026 4.32785C5.0779 4.3002 5.20528 4.20765 5.27719 4.07579L7.06104 0.804893Z" fill="#FFA41C"/>
</svg>
